Coordinates
version=1
nRows=12
nColumns=33
inDegrees=yes

Units are S.I. units (second, meters, Newtons, ...)
Angles are in degrees.

endheader
time	ground_thorax_rot_x	ground_thorax_rot_y	ground_thorax_rot_z	ground_thorax_tx	ground_thorax_ty	ground_thorax_tz	clav_prot_r	clav_elev_r	scapula_abduction_r	scapula_elevation_r	scapula_upward_rot_r	scapula_winging_r	shoulder_elv_r	plane_of_elev_r	axial_rot_r	elbow_flexion_r	pro_sup_r	wrist_flex_r	wrist_dev_r	clav_prot_l	clav_elev_l	scapula_abduction_l	scapula_elevation_l	scapula_upward_rot_l	scapula_winging_l	shoulder_elv_l	plane_of_elev_l	axial_rot_l	elbow_flexion_l	pro_sup_l	wrist_flex_l	wrist_dev_l
      1.25000000	    -41.91673814	     -6.87084190	     10.99668361	   -164.35817741	    820.66184352	     -2.67822734	     10.58592643	    -45.00000000	     45.00000000	    -45.00000000	    -35.61009893	  -2255.79640699	  -1902.87774366	    144.61993288	    179.99999979	    369.50047030	     47.22302976	     23.34117707	     11.24562915	     16.90856456	     41.65186335	    -43.42061328	    -45.00000000	    -34.95190986	   1885.63858869	  -4608.28996410	     28.08619031	      5.45401994	   -714.47923739	     12.12575954	     11.50283094	    -20.58157101
      1.26000000	    -41.78712810	     -7.12574938	     11.37041301	   -169.06709449	    821.63250557	     -2.33232793	     10.99061602	    -45.00000000	     45.00000000	    -45.00000000	    -36.54280207	  -2256.28003502	  -1902.94873305	    144.60157327	    179.99999979	    369.21351170	     47.39810046	     23.41046066	     11.38568118	     16.80839442	     41.38442339	    -43.22326101	    -45.00000000	    -35.85428383	   1885.79443822	  -4608.41989052	     27.95932972	      4.40821520	   -714.50393420	     11.26408312	     11.65820955	    -20.54110230
      1.27000000	    -41.72183777	     -7.45361657	     11.75799002	   -173.72739498	    822.59070327	     -1.97037997	     11.27003872	    -45.00000000	     44.86685125	    -45.00000000	    -38.14297171	  -2256.65081066	  -1902.96724785	    144.56747746	    179.99999979	    369.32570869	     47.54069683	     23.53807290	     11.43949717	     16.71741345	     41.09505688	    -42.93932102	    -45.00000000	    -36.79910529	   1885.98295286	  -4608.39853819	     27.86946631	      3.50556140	   -714.52847192	     10.42490656	     11.81414400	    -20.48271024
      1.28000000	    -41.61606489	     -7.77105895	     12.20416169	   -178.32666300	    823.53625913	     -1.59533308	     11.36801444	    -45.00000000	     44.51108371	    -45.00000000	    -40.25291726	  -2256.89211252	  -1902.79503188	    144.45122858	    179.99999979	    369.38617088	     47.73900463	     23.68340649	     11.47332675	     16.71103510	     40.80023933	    -42.59618274	    -45.00000000	    -37.74180059	   1886.03125275	  -4608.32418946	     27.81658468	      2.98482702	   -714.56359952	      9.58499285	     11.94583421	    -20.40358677
      1.29000000	    -41.52559271	     -8.09404534	     12.53521879	   -182.83087845	    824.45089695	     -1.21808822	     11.39765638	    -45.00000000	     44.22606692	    -45.00000000	    -42.18583927	  -2257.09186868	  -1902.58301666	    144.31021199	    179.99999979	    369.39842379	     48.01987447	     23.84677299	     11.51999625	     16.72220003	     40.49640122	    -42.27874323	    -45.00000000	    -38.77998731	   1886.07614440	  -4608.21307106	     27.78494641	      2.44200263	   -714.67287717	      8.94520210	     12.01990741	    -20.33047442
      1.30000000	    -41.44779570	     -8.36445749	     12.91826358	   -187.22764975	    825.33017708	     -0.84055798	     11.43637298	    -45.00000000	     43.82305784	    -45.00000000	    -44.47421865	  -2257.27950873	  -1902.36904390	    144.15738350	    179.99999979	    369.53295290	     48.36143740	     23.93892713	     11.36641579	     16.65626604	     40.26423930	    -41.90914843	    -45.00000000	    -39.57879424	   1886.04758244	  -4608.03578929	     27.73834630	      2.31362314	   -714.78724647	      8.35040765	     12.11415758	    -20.23722226
      1.31000000	    -41.45022515	     -8.32363499	     12.86875882	   -191.48096430	    826.15255568	     -0.47166171	     11.57929152	    -45.00000000	     43.60359794	    -45.00000000	    -45.00000000	  -2257.45246783	  -1902.41895457	    144.29329306	    179.99999979	    369.38470228	     48.81031806	     24.10264534	     11.43938329	     16.50819547	     40.20782681	    -41.80811390	    -45.00000000	    -39.94400403	   1886.26967815	  -4608.17255224	     27.63264665	      1.46250496	   -714.81315838	      8.37184292	     12.17606051	    -20.29510747
      1.32000000	    -41.39876699	     -8.25874234	     12.70530070	   -195.57205618	    826.91287080	     -0.11225034	     11.41448433	    -45.00000000	     43.61040634	    -45.00000000	    -45.00000000	  -2257.70109111	  -1902.57272920	    144.49265639	    179.99999979	    369.18429788	     49.35021973	     24.26118006	     11.38767925	     16.41706434	     40.10328805	    -41.40602026	    -45.00000000	    -40.14655246	   1886.20738536	  -4608.12139581	     27.53169575	      1.20640193	   -714.84711676	      8.35624024	     12.14664431	    -20.31472568
      1.33000000	    -41.37779744	     -8.23445714	     12.69120795	   -199.48212188	    827.60086707	      0.23478706	     11.48160485	    -45.00000000	     43.49137383	    -45.00000000	    -45.00000000	  -2257.99010333	  -1902.79028119	    144.67882255	    179.99999979	    368.89990015	     49.97676574	     24.43877324	     11.40554754	     16.38453257	     39.84990760	    -41.24286973	    -45.00000000	    -40.84217424	   1886.26910267	  -4608.05265233	     27.49889331	      0.84926146	   -714.79868856	      8.60414803	     12.01138124	    -20.40299667
      1.34000000	    -41.37011823	     -8.16742335	     12.64376596	   -203.21289117	    828.21841470	      0.57190979	     11.52364137	    -45.00000000	     43.24208061	    -45.00000000	    -45.00000000	  -2258.21419186	  -1902.96326460	    144.85133340	    179.99999979	    368.65798417	     50.58862157	     24.60020240	     11.40162848	     16.20408186	     39.80997834	    -41.16085256	    -45.00000000	    -40.93786720	   1886.38266649	  -4608.20608214	     27.33029993	      0.35670123	   -714.88559172	      9.13442962	     11.98588054	    -20.52690398
      1.35000000	    -41.27045134	     -8.18804040	     12.58776838	   -206.74022928	    828.75077166	      0.89093574	     11.49403586	    -45.00000000	     43.24500941	    -45.00000000	    -45.00000000	  -2258.50997161	  -1903.07123070	    145.00118791	    179.99999979	    368.39959530	     51.29832940	     24.82542270	     11.39917776	     16.28519864	     39.53950075	    -40.86659295	    -45.00000000	    -41.89300925	   1886.30306683	  -4608.04591387	     27.44061881	      0.29461006	   -714.82954866	      9.69489454	     11.71649087	    -20.64052281
      1.36000000	    -41.27070219	     -8.18000077	     12.54017660	   -210.06059251	    829.18654424	      1.18916478	     11.43517561	    -45.00000000	     43.16878124	    -45.00000000	    -45.00000000	  -2258.74248905	  -1903.28195136	    145.20215652	    179.99999979	    368.16553029	     52.03204323	     25.07155118	     11.39059176	     16.24071029	     39.40508661	    -40.65091174	    -45.00000000	    -42.42922149	   1886.27584283	  -4607.93745133	     27.47999262	      0.46405866	   -714.89612536	     10.44175621	     11.55238921	    -20.76669977
